<svg width="291" height="290" viewBox="0 0 291 290" fill="none" xmlns="http://www.w3.org/2000/svg">
<path d="M76.8252 130.963L77.5635 135.765L77.5615 135.766C77.5598 135.767 77.5575 135.767 77.5547 135.767C77.5487 135.768 77.5399 135.77 77.5293 135.771C77.5078 135.774 77.4765 135.779 77.4365 135.785C77.3565 135.797 77.2399 135.814 77.0889 135.837C76.7867 135.881 76.346 135.945 75.7832 136.023C74.6579 136.18 73.0417 136.397 71.0615 136.637C67.1056 137.117 61.6732 137.694 55.7852 138.08C49.9125 138.464 43.5 138.663 37.6084 138.367C31.8501 138.077 26.0597 137.295 21.7461 135.419C16.9576 133.335 13.1511 129.086 10.4658 124.28C7.73977 119.401 5.90918 113.5 5.33398 107.421C4.18947 95.3229 8.02657 81.4079 21.3164 73.99C26.3491 71.1809 32.5489 69.9366 38.627 69.4782C44.7738 69.0147 51.2072 69.328 56.9805 69.9245C62.7709 70.5229 68.0087 71.4182 71.7939 72.1618C73.6898 72.5343 75.2304 72.8701 76.3037 73.115C76.8405 73.2374 77.2613 73.3368 77.5518 73.407C77.697 73.442 77.8101 73.4705 77.8887 73.49C77.9277 73.4996 77.9586 73.5069 77.9805 73.5124C77.9914 73.5152 78.0003 73.5176 78.0068 73.5193C78.0099 73.52 78.0125 73.5207 78.0146 73.5212C78.0157 73.5215 78.017 73.522 78.0176 73.5222C78.0172 73.5281 77.9776 73.6891 76.8252 78.2331L78.0195 73.5222C80.1752 74.0689 81.6845 76.0093 81.6846 78.2331V130.963C81.6843 133.361 79.9355 135.4 77.5654 135.765L76.8252 130.963Z" fill="#81B3EC" stroke="#006FED" stroke-width="9.72" stroke-linejoin="round"/>
<path d="M22.0056 241.08C31.8798 251.704 47.0864 251.203 58.1501 248.999C63.8969 247.855 69.0704 246.149 72.7888 244.741C74.6553 244.034 76.1734 243.395 77.2351 242.928C77.7663 242.694 78.1847 242.503 78.4763 242.367C78.622 242.3 78.7361 242.245 78.8171 242.206C78.8576 242.187 78.8901 242.172 78.9138 242.16L78.9529 242.141C78.9542 242.14 78.9561 242.14 78.9568 242.14C78.9583 242.139 78.9526 242.124 76.825 237.772L78.9597 242.138C80.6274 241.323 81.6853 239.628 81.6853 237.772V139.725C81.6853 137.041 79.509 134.865 76.825 134.865H25.5652C23.3931 134.865 21.4846 136.307 20.8904 138.396L25.5652 139.725L20.8894 138.398C20.8892 138.399 20.8889 138.4 20.8884 138.402C20.8875 138.405 20.8861 138.41 20.8845 138.415C20.8814 138.426 20.8775 138.442 20.8718 138.462C20.8605 138.503 20.8441 138.561 20.823 138.637C20.7808 138.789 20.7195 139.01 20.6414 139.297C20.4851 139.871 20.2607 140.709 19.9841 141.78C19.4311 143.919 18.6677 146.991 17.821 150.745C16.1301 158.244 14.0942 168.511 12.7341 179.538C11.3781 190.532 10.67 202.464 11.7195 213.232C12.7542 223.848 15.5718 234.158 22.0056 241.08Z" fill="#81B3EC" stroke="#006FED" stroke-width="9.72" stroke-linejoin="round"/>
<mask id="path-3-inside-1_89_14156" fill="white">
<path d="M127.855 242.385C129.987 243.194 132.026 244.198 133.93 245.43C154.584 258.795 143.043 285.524 133.93 285.525C128.702 285.525 110.676 285.525 96.2576 285.525C85.6888 285.525 77.0965 277.091 76.8308 266.586L76.825 266.085V162.81H127.855V242.385Z"/>
</mask>
<path d="M127.855 242.385C129.987 243.194 132.026 244.198 133.93 245.43C154.584 258.795 143.043 285.524 133.93 285.525C128.702 285.525 110.676 285.525 96.2576 285.525C85.6888 285.525 77.0965 277.091 76.8308 266.586L76.825 266.085V162.81H127.855V242.385Z" fill="#7EDAFF"/>
<path d="M127.855 242.385H118.135V249.092L124.406 251.473L127.855 242.385ZM133.93 245.43L139.211 237.27L139.211 237.269L133.93 245.43ZM133.93 285.525L133.93 295.245L133.931 295.245L133.93 285.525ZM96.2576 285.525L96.2576 275.805L96.2576 285.525ZM76.8308 266.586L67.1115 266.7L67.1122 266.766L67.1139 266.832L76.8308 266.586ZM76.825 266.085H67.105V266.142L67.1056 266.199L76.825 266.085ZM76.825 162.81V153.09H67.105V162.81H76.825ZM127.855 162.81H137.575V153.09H127.855V162.81ZM127.855 242.385L124.406 251.473C125.968 252.066 127.383 252.771 128.65 253.591L133.93 245.43L139.211 237.269C136.669 235.625 134.006 234.323 131.305 233.298L127.855 242.385ZM133.93 245.43L128.65 253.591C135.119 257.776 136.423 263.576 135.515 268.835C135.034 271.618 133.95 273.914 132.91 275.299C131.536 277.126 131.626 275.805 133.929 275.805L133.93 285.525L133.931 295.245C140.792 295.244 145.741 290.582 148.449 286.98C151.49 282.934 153.709 277.713 154.671 272.143C156.648 260.696 153.396 246.449 139.211 237.27L133.93 245.43ZM133.93 285.525V275.805C132.899 275.805 133.931 275.805 132.804 275.805C132.791 275.805 132.778 275.805 132.764 275.805C132.751 275.805 132.738 275.805 132.724 275.805C132.711 275.805 132.698 275.805 132.684 275.805C132.671 275.805 132.657 275.805 132.643 275.805C132.63 275.805 132.616 275.805 132.603 275.805C132.589 275.805 132.575 275.805 132.562 275.805C132.548 275.805 132.534 275.805 132.52 275.805C132.506 275.805 132.492 275.805 132.479 275.805C132.465 275.805 132.451 275.805 132.437 275.805C132.423 275.805 132.409 275.805 132.394 275.805C132.38 275.805 132.366 275.805 132.352 275.805C132.338 275.805 132.324 275.805 132.309 275.805C132.295 275.805 132.281 275.805 132.266 275.805C132.252 275.805 132.238 275.805 132.223 275.805C132.209 275.805 132.194 275.805 132.18 275.805C132.165 275.805 132.151 275.805 132.136 275.805C132.121 275.805 132.107 275.805 132.092 275.805C132.077 275.805 132.063 275.805 132.048 275.805C132.033 275.805 132.018 275.805 132.003 275.805C131.988 275.805 131.974 275.805 131.959 275.805C131.944 275.805 131.929 275.805 131.914 275.805C131.899 275.805 131.883 275.805 131.868 275.805C131.853 275.805 131.838 275.805 131.823 275.805C131.808 275.805 131.792 275.805 131.777 275.805C131.762 275.805 131.746 275.805 131.731 275.805C131.716 275.805 131.7 275.805 131.685 275.805C131.669 275.805 131.654 275.805 131.638 275.805C131.623 275.805 131.607 275.805 131.592 275.805C131.576 275.805 131.56 275.805 131.545 275.805C131.529 275.805 131.513 275.805 131.497 275.805C131.481 275.805 131.466 275.805 131.45 275.805C131.434 275.805 131.418 275.805 131.402 275.805C131.386 275.805 131.37 275.805 131.354 275.805C131.338 275.805 131.322 275.805 131.306 275.805C131.29 275.805 131.273 275.805 131.257 275.805C131.241 275.805 131.225 275.805 131.208 275.805C131.192 275.805 131.176 275.805 131.16 275.805C131.143 275.805 131.127 275.805 131.11 275.805C131.094 275.805 131.077 275.805 131.061 275.805C131.044 275.805 131.028 275.805 131.011 275.805C130.995 275.805 130.978 275.805 130.961 275.805C130.945 275.805 130.928 275.805 130.911 275.805C130.894 275.805 130.877 275.805 130.861 275.805C130.844 275.805 130.827 275.805 130.81 275.805C130.793 275.805 130.776 275.805 130.759 275.805C130.742 275.805 130.725 275.805 130.708 275.805C130.691 275.805 130.674 275.805 130.657 275.805C130.639 275.805 130.622 275.805 130.605 275.805C130.229 275.805 130.565 275.805 130.184 275.805C130.166 275.805 130.148 275.805 130.13 275.805C130.112 275.805 130.094 275.805 130.076 275.805C130.058 275.805 130.04 275.805 130.022 275.805C130.004 275.805 129.986 275.805 129.968 275.805C129.949 275.805 129.931 275.805 129.913 275.805C129.895 275.805 129.877 275.805 129.858 275.805C129.84 275.805 129.822 275.805 129.803 275.805C129.785 275.805 129.766 275.805 129.748 275.805C129.729 275.805 129.711 275.805 129.692 275.805C129.674 275.805 129.655 275.805 129.637 275.805C129.618 275.805 129.599 275.805 129.581 275.805C129.562 275.805 129.543 275.805 129.525 275.805C129.506 275.805 129.487 275.805 129.468 275.805C129.449 275.805 129.431 275.805 129.412 275.805C129.393 275.805 129.374 275.805 129.355 275.805C129.336 275.805 129.317 275.805 129.298 275.805C129.279 275.805 129.26 275.805 129.241 275.805C129.221 275.805 129.202 275.805 129.183 275.805C129.164 275.805 129.145 275.805 129.125 275.805C129.106 275.805 129.087 275.805 129.068 275.805C129.048 275.805 129.029 275.805 129.009 275.805C128.99 275.805 128.971 275.805 128.951 275.805C128.932 275.805 128.912 275.805 128.893 275.805C128.873 275.805 128.854 275.805 128.834 275.805C128.814 275.805 128.795 275.805 128.775 275.805C128.755 275.805 128.736 275.805 128.716 275.805C128.696 275.805 128.676 275.805 128.656 275.805C128.637 275.805 128.617 275.805 128.597 275.805C128.577 275.805 128.557 275.805 128.537 275.805C128.517 275.805 128.497 275.805 128.477 275.805C128.457 275.805 128.437 275.805 128.417 275.805C128.397 275.805 128.377 275.805 128.356 275.805C128.336 275.805 128.316 275.805 128.296 275.805C128.276 275.805 128.255 275.805 128.235 275.805C128.215 275.805 128.194 275.805 128.174 275.805C128.154 275.805 128.133 275.805 128.113 275.805C128.092 275.805 128.072 275.805 128.051 275.805C128.031 275.805 128.01 275.805 127.99 275.805C127.969 275.805 127.949 275.805 127.928 275.805C127.907 275.805 127.887 275.805 127.866 275.805C127.845 275.805 127.824 275.805 127.804 275.805C127.783 275.805 127.762 275.805 127.741 275.805C127.72 275.805 127.7 275.805 127.679 275.805C127.658 275.805 127.637 275.805 127.616 275.805C127.595 275.805 127.574 275.805 127.553 275.805C127.532 275.805 127.511 275.805 127.49 275.805C127.469 275.805 127.447 275.805 127.426 275.805C127.405 275.805 127.384 275.805 127.363 275.805C127.341 275.805 127.32 275.805 127.299 275.805C127.278 275.805 127.256 275.805 127.235 275.805C127.214 275.805 127.192 275.805 127.171 275.805C127.149 275.805 127.128 275.805 127.106 275.805C127.085 275.805 127.063 275.805 127.042 275.805C127.02 275.805 126.999 275.805 126.977 275.805C126.955 275.805 126.934 275.805 126.912 275.805C126.89 275.805 126.869 275.805 126.847 275.805C126.825 275.805 126.804 275.805 126.782 275.805C126.76 275.805 126.738 275.805 126.716 275.805C126.694 275.805 126.672 275.805 126.651 275.805C126.629 275.805 126.607 275.805 126.585 275.805C126.563 275.805 126.541 275.805 126.519 275.805C126.497 275.805 126.475 275.805 126.452 275.805C126.43 275.805 126.408 275.805 126.386 275.805C126.364 275.805 126.342 275.805 126.319 275.805C126.297 275.805 126.275 275.805 126.253 275.805C126.23 275.805 126.208 275.805 126.186 275.805C126.163 275.805 126.141 275.805 126.119 275.805C126.096 275.805 126.074 275.805 126.051 275.805C126.029 275.805 126.006 275.805 125.984 275.805C125.961 275.805 125.939 275.805 125.916 275.805C125.893 275.805 125.871 275.805 125.848 275.805C125.826 275.805 125.803 275.805 125.78 275.805C125.757 275.805 125.735 275.805 125.712 275.805C125.689 275.805 125.666 275.805 125.644 275.805C125.621 275.805 125.598 275.805 125.575 275.805C125.552 275.805 125.529 275.805 125.506 275.805C125.483 275.805 125.46 275.805 125.437 275.805C125.414 275.805 125.391 275.805 125.368 275.805C125.345 275.805 125.322 275.805 125.299 275.805C125.276 275.805 125.253 275.805 125.23 275.805C125.207 275.805 125.183 275.805 125.16 275.805C125.137 275.805 125.114 275.805 125.09 275.805C125.067 275.805 125.044 275.805 125.02 275.805C124.997 275.805 124.974 275.805 124.95 275.805C124.927 275.805 124.904 275.805 124.88 275.805C124.857 275.805 124.833 275.805 124.81 275.805C124.786 275.805 124.763 275.805 124.739 275.805C124.716 275.805 124.692 275.805 124.668 275.805C124.645 275.805 124.621 275.805 124.597 275.805C124.574 275.805 124.55 275.805 124.526 275.805C124.503 275.805 124.479 275.805 124.455 275.805C124.431 275.805 124.408 275.805 124.384 275.805C124.36 275.805 124.336 275.805 124.312 275.805C124.288 275.805 124.264 275.805 124.24 275.805C124.217 275.805 124.193 275.805 124.169 275.805C124.145 275.805 124.121 275.805 124.097 275.805C124.072 275.805 124.048 275.805 124.024 275.805C124 275.805 123.976 275.805 123.952 275.805C123.928 275.805 123.904 275.805 123.879 275.805C123.855 275.805 123.831 275.805 123.807 275.805C123.783 275.805 123.758 275.805 123.734 275.805C123.71 275.805 123.685 275.805 123.661 275.805C123.637 275.805 123.612 275.805 123.588 275.805C123.563 275.805 123.539 275.805 123.515 275.805C121.369 275.805 120.861 275.805 118.54 275.805C115.059 275.805 111.291 275.805 107.491 275.805C104.959 275.805 104.318 275.805 101.801 275.805C101.772 275.805 101.743 275.805 101.713 275.805C101.684 275.805 101.654 275.805 101.625 275.805C101.596 275.805 101.566 275.805 101.537 275.805C101.507 275.805 101.478 275.805 101.449 275.805C101.419 275.805 101.39 275.805 101.361 275.805C101.331 275.805 101.302 275.805 101.273 275.805C101.243 275.805 101.214 275.805 101.184 275.805C101.155 275.805 101.126 275.805 101.097 275.805C101.067 275.805 101.038 275.805 101.009 275.805C100.979 275.805 100.95 275.805 100.921 275.805C100.891 275.805 100.862 275.805 100.833 275.805C100.804 275.805 100.774 275.805 100.745 275.805C100.716 275.805 100.687 275.805 100.657 275.805C100.628 275.805 100.599 275.805 100.57 275.805C100.54 275.805 100.511 275.805 100.482 275.805C100.453 275.805 100.423 275.805 100.394 275.805C100.365 275.805 100.336 275.805 100.307 275.805C100.278 275.805 100.248 275.805 100.219 275.805C100.19 275.805 100.161 275.805 100.132 275.805C100.103 275.805 100.073 275.805 100.044 275.805C100.015 275.805 99.986 275.805 99.9569 275.805C99.9278 275.805 99.8986 275.805 99.8695 275.805C99.8404 275.805 99.8114 275.805 99.7823 275.805C99.7532 275.805 99.7241 275.805 99.695 275.805C99.666 275.805 99.6369 275.805 99.6079 275.805C99.5788 275.805 99.5498 275.805 99.5208 275.805C99.4917 275.805 99.4627 275.805 99.4337 275.805C99.4047 275.805 99.3757 275.805 99.3467 275.805C99.3177 275.805 99.2887 275.805 99.2597 275.805C99.2308 275.805 99.2018 275.805 99.1728 275.805C99.1439 275.805 99.1149 275.805 99.086 275.805C99.0571 275.805 99.0281 275.805 98.9992 275.805C98.9703 275.805 98.9414 275.805 98.9125 275.805C98.8836 275.805 98.8547 275.805 98.8259 275.805C98.797 275.805 98.7681 275.805 98.7393 275.805C98.7104 275.805 98.6816 275.805 98.6527 275.805C98.6239 275.805 98.5951 275.805 98.5662 275.805C98.5374 275.805 98.5086 275.805 98.4798 275.805C98.451 275.805 98.4223 275.805 98.3935 275.805C98.3647 275.805 98.3359 275.805 98.3072 275.805C98.2784 275.805 98.2497 275.805 98.221 275.805C98.1923 275.805 98.1635 275.805 98.1348 275.805C98.1061 275.805 98.0774 275.805 98.0487 275.805C98.0201 275.805 97.9914 275.805 97.9627 275.805C97.9341 275.805 97.9054 275.805 97.8768 275.805C97.8481 275.805 97.8195 275.805 97.7909 275.805C97.7623 275.805 97.7337 275.805 97.7051 275.805C97.6765 275.805 97.6479 275.805 97.6193 275.805C97.5908 275.805 97.5622 275.805 97.5337 275.805C97.5051 275.805 97.4766 275.805 97.4481 275.805C97.4195 275.805 97.391 275.805 97.3625 275.805C97.334 275.805 97.3055 275.805 97.2771 275.805C97.2486 275.805 97.2201 275.805 97.1917 275.805C97.1632 275.805 97.1348 275.805 97.1064 275.805C97.078 275.805 97.0495 275.805 97.0211 275.805C96.9928 275.805 96.9644 275.805 96.936 275.805C96.9076 275.805 96.8793 275.805 96.8509 275.805C96.8226 275.805 96.7942 275.805 96.7659 275.805C96.7376 275.805 96.7093 275.805 96.681 275.805C96.6527 275.805 96.6244 275.805 96.5961 275.805C96.5679 275.805 96.5396 275.805 96.5114 275.805C96.4831 275.805 96.4549 275.805 96.4267 275.805C96.3985 275.805 96.3703 275.805 96.3421 275.805C96.3139 275.805 96.2857 275.805 96.2576 275.805V285.525V295.245C96.2857 295.245 96.3139 295.245 96.3421 295.245C96.3703 295.245 96.3985 295.245 96.4267 295.245C96.4549 295.245 96.4831 295.245 96.5114 295.245C96.5396 295.245 96.5679 295.245 96.5961 295.245C96.6244 295.245 96.6527 295.245 96.681 295.245C96.7093 295.245 96.7376 295.245 96.7659 295.245C96.7942 295.245 96.8226 295.245 96.8509 295.245C96.8793 295.245 96.9076 295.245 96.936 295.245C96.9644 295.245 96.9928 295.245 97.0211 295.245C97.0495 295.245 97.078 295.245 97.1064 295.245C97.1348 295.245 97.1632 295.245 97.1917 295.245C97.2201 295.245 97.2486 295.245 97.2771 295.245C97.3055 295.245 97.334 295.245 97.3625 295.245C97.391 295.245 97.4195 295.245 97.4481 295.245C97.4766 295.245 97.5051 295.245 97.5337 295.245C97.5622 295.245 97.5908 295.245 97.6193 295.245C97.6479 295.245 97.6765 295.245 97.7051 295.245C97.7337 295.245 97.7623 295.245 97.7909 295.245C97.8195 295.245 97.8481 295.245 97.8768 295.245C97.9054 295.245 97.9341 295.245 97.9627 295.245C97.9914 295.245 98.0201 295.245 98.0487 295.245C98.0774 295.245 98.1061 295.245 98.1348 295.245C98.1635 295.245 98.1923 295.245 98.221 295.245C98.2497 295.245 98.2784 295.245 98.3072 295.245C98.3359 295.245 98.3647 295.245 98.3935 295.245C98.4223 295.245 98.451 295.245 98.4798 295.245C98.5086 295.245 98.5374 295.245 98.5662 295.245C98.5951 295.245 98.6239 295.245 98.6527 295.245C98.6816 295.245 98.7104 295.245 98.7393 295.245C98.7681 295.245 98.797 295.245 98.8259 295.245C98.8547 295.245 98.8836 295.245 98.9125 295.245C98.9414 295.245 98.9703 295.245 98.9992 295.245C99.0281 295.245 99.0571 295.245 99.086 295.245C99.1149 295.245 99.1439 295.245 99.1728 295.245C99.2018 295.245 99.2308 295.245 99.2597 295.245C99.2887 295.245 99.3177 295.245 99.3467 295.245C99.3757 295.245 99.4047 295.245 99.4337 295.245C99.4627 295.245 99.4917 295.245 99.5208 295.245C99.5498 295.245 99.5788 295.245 99.6079 295.245C99.6369 295.245 99.666 295.245 99.695 295.245C99.7241 295.245 99.7532 295.245 99.7823 295.245C99.8114 295.245 99.8404 295.245 99.8695 295.245C99.8986 295.245 99.9278 295.245 99.9569 295.245C99.986 295.245 100.015 295.245 100.044 295.245C100.073 295.245 100.103 295.245 100.132 295.245C100.161 295.245 100.19 295.245 100.219 295.245C100.248 295.245 100.278 295.245 100.307 295.245C100.336 295.245 100.365 295.245 100.394 295.245C100.423 295.245 100.453 295.245 100.482 295.245C100.511 295.245 100.54 295.245 100.57 295.245C100.599 295.245 100.628 295.245 100.657 295.245C100.687 295.245 100.716 295.245 100.745 295.245C100.774 295.245 100.804 295.245 100.833 295.245C100.862 295.245 100.891 295.245 100.921 295.245C100.95 295.245 100.979 295.245 101.009 295.245C101.038 295.245 101.067 295.245 101.097 295.245C101.126 295.245 101.155 295.245 101.184 295.245C101.214 295.245 101.243 295.245 101.273 295.245C101.302 295.245 101.331 295.245 101.361 295.245C101.39 295.245 101.419 295.245 101.449 295.245C101.478 295.245 101.507 295.245 101.537 295.245C101.566 295.245 101.596 295.245 101.625 295.245C101.654 295.245 101.684 295.245 101.713 295.245C101.743 295.245 101.772 295.245 101.801 295.245C101.831 295.245 101.86 295.245 101.89 295.245C101.919 295.245 101.949 295.245 101.978 295.245C102.007 295.245 102.037 295.245 102.066 295.245C102.096 295.245 102.125 295.245 102.155 295.245C102.184 295.245 102.214 295.245 102.243 295.245C102.273 295.245 102.302 295.245 102.332 295.245C102.361 295.245 102.391 295.245 102.42 295.245C102.45 295.245 102.479 295.245 102.509 295.245C102.538 295.245 102.568 295.245 102.597 295.245C102.627 295.245 102.656 295.245 102.686 295.245C102.715 295.245 102.745 295.245 102.774 295.245C102.804 295.245 102.833 295.245 102.863 295.245C102.893 295.245 102.922 295.245 102.952 295.245C102.981 295.245 103.011 295.245 103.04 295.245C103.07 295.245 103.099 295.245 103.129 295.245C103.159 295.245 103.188 295.245 103.218 295.245C103.247 295.245 103.277 295.245 103.306 295.245C103.336 295.245 103.366 295.245 103.395 295.245C103.425 295.245 103.454 295.245 103.484 295.245C103.514 295.245 103.543 295.245 103.573 295.245C103.602 295.245 103.632 295.245 103.662 295.245C103.691 295.245 103.721 295.245 103.751 295.245C103.78 295.245 103.81 295.245 103.839 295.245C103.869 295.245 103.899 295.245 103.928 295.245C103.958 295.245 103.988 295.245 104.017 295.245C104.047 295.245 104.077 295.245 104.106 295.245C104.136 295.245 104.166 295.245 104.195 295.245C104.225 295.245 104.254 295.245 104.284 295.245C104.314 295.245 104.343 295.245 104.373 295.245C104.403 295.245 104.432 295.245 104.462 295.245C104.492 295.245 104.521 295.245 104.551 295.245C104.581 295.245 104.61 295.245 104.64 295.245C104.67 295.245 104.7 295.245 104.729 295.245C104.759 295.245 104.789 295.245 104.818 295.245C104.848 295.245 104.878 295.245 104.907 295.245C104.937 295.245 104.967 295.245 104.996 295.245C105.026 295.245 105.056 295.245 105.085 295.245C105.115 295.245 105.145 295.245 105.175 295.245C105.204 295.245 105.234 295.245 105.264 295.245C105.293 295.245 105.323 295.245 105.353 295.245C105.382 295.245 105.412 295.245 105.442 295.245C105.472 295.245 105.501 295.245 105.531 295.245C105.561 295.245 105.59 295.245 105.62 295.245C105.65 295.245 105.679 295.245 105.709 295.245C105.739 295.245 105.769 295.245 105.798 295.245C105.828 295.245 105.858 295.245 105.887 295.245C105.917 295.245 105.947 295.245 105.977 295.245C106.006 295.245 106.036 295.245 106.066 295.245C106.095 295.245 106.125 295.245 106.155 295.245C106.185 295.245 106.214 295.245 106.244 295.245C106.274 295.245 106.303 295.245 106.333 295.245C106.363 295.245 106.392 295.245 106.422 295.245C106.452 295.245 106.482 295.245 106.511 295.245C106.541 295.245 106.571 295.245 106.6 295.245C106.63 295.245 106.66 295.245 106.69 295.245C106.719 295.245 106.749 295.245 106.779 295.245C106.808 295.245 106.838 295.245 106.868 295.245C106.897 295.245 106.927 295.245 106.957 295.245C106.987 295.245 107.016 295.245 107.046 295.245C107.076 295.245 107.105 295.245 107.135 295.245C107.165 295.245 107.194 295.245 107.224 295.245C107.254 295.245 107.284 295.245 107.313 295.245C107.343 295.245 107.373 295.245 107.402 295.245C107.432 295.245 107.462 295.245 107.491 295.245C111.291 295.245 115.059 295.245 118.54 295.245C118.567 295.245 118.595 295.245 118.622 295.245C118.649 295.245 118.676 295.245 118.703 295.245C118.73 295.245 118.757 295.245 118.784 295.245C118.812 295.245 118.839 295.245 118.866 295.245C118.893 295.245 118.92 295.245 118.947 295.245C118.974 295.245 119.001 295.245 119.028 295.245C119.055 295.245 119.082 295.245 119.109 295.245C119.136 295.245 119.163 295.245 119.189 295.245C119.216 295.245 119.243 295.245 119.27 295.245C119.297 295.245 119.324 295.245 119.351 295.245C119.378 295.245 119.404 295.245 119.431 295.245C119.458 295.245 119.485 295.245 119.512 295.245C119.538 295.245 119.565 295.245 119.592 295.245C119.618 295.245 119.645 295.245 119.672 295.245C119.699 295.245 119.725 295.245 119.752 295.245C119.778 295.245 119.805 295.245 119.832 295.245C119.858 295.245 119.885 295.245 119.911 295.245C119.938 295.245 119.965 295.245 119.991 295.245C120.018 295.245 120.044 295.245 120.071 295.245C120.097 295.245 120.124 295.245 120.15 295.245C120.176 295.245 120.203 295.245 120.229 295.245C120.256 295.245 120.282 295.245 120.308 295.245C120.335 295.245 120.361 295.245 120.387 295.245C120.414 295.245 120.44 295.245 120.466 295.245C120.493 295.245 120.519 295.245 120.545 295.245C120.571 295.245 120.598 295.245 120.624 295.245C120.65 295.245 120.676 295.245 120.702 295.245C120.729 295.245 120.755 295.245 120.781 295.245C120.807 295.245 120.833 295.245 120.859 295.245C120.885 295.245 120.911 295.245 120.937 295.245C120.963 295.245 120.989 295.245 121.015 295.245C121.041 295.245 121.067 295.245 121.093 295.245C121.119 295.245 121.145 295.245 121.171 295.245C121.197 295.245 121.223 295.245 121.249 295.245C121.275 295.245 121.3 295.245 121.326 295.245C121.352 295.245 121.378 295.245 121.404 295.245C121.429 295.245 121.455 295.245 121.481 295.245C121.507 295.245 121.532 295.245 121.558 295.245C121.584 295.245 121.609 295.245 121.635 295.245C121.661 295.245 121.686 295.245 121.712 295.245C121.737 295.245 121.763 295.245 121.789 295.245C121.814 295.245 121.84 295.245 121.865 295.245C121.891 295.245 121.916 295.245 121.942 295.245C121.967 295.245 121.993 295.245 122.018 295.245C122.043 295.245 122.069 295.245 122.094 295.245C122.12 295.245 122.145 295.245 122.17 295.245C122.196 295.245 122.221 295.245 122.246 295.245C122.271 295.245 122.297 295.245 122.322 295.245C122.347 295.245 122.372 295.245 122.398 295.245C122.423 295.245 122.448 295.245 122.473 295.245C122.498 295.245 122.523 295.245 122.548 295.245C122.573 295.245 122.599 295.245 122.624 295.245C122.649 295.245 122.674 295.245 122.699 295.245C122.724 295.245 122.749 295.245 122.774 295.245C122.798 295.245 122.823 295.245 122.848 295.245C122.873 295.245 122.898 295.245 122.923 295.245C122.948 295.245 122.973 295.245 122.997 295.245C123.022 295.245 123.047 295.245 123.072 295.245C123.096 295.245 123.121 295.245 123.146 295.245C123.171 295.245 123.195 295.245 123.22 295.245C123.245 295.245 123.269 295.245 123.294 295.245C123.318 295.245 123.343 295.245 123.368 295.245C123.392 295.245 123.417 295.245 123.441 295.245C123.466 295.245 123.49 295.245 123.515 295.245C123.539 295.245 123.563 295.245 123.588 295.245C123.612 295.245 123.637 295.245 123.661 295.245C123.685 295.245 123.71 295.245 123.734 295.245C123.758 295.245 123.783 295.245 123.807 295.245C123.831 295.245 123.855 295.245 123.879 295.245C123.904 295.245 123.928 295.245 123.952 295.245C123.976 295.245 124 295.245 124.024 295.245C124.048 295.245 124.072 295.245 124.097 295.245C124.121 295.245 124.145 295.245 124.169 295.245C124.193 295.245 124.217 295.245 124.24 295.245C124.264 295.245 124.288 295.245 124.312 295.245C124.336 295.245 124.36 295.245 124.384 295.245C124.408 295.245 124.431 295.245 124.455 295.245C124.479 295.245 124.503 295.245 124.526 295.245C124.55 295.245 124.574 295.245 124.597 295.245C124.621 295.245 124.645 295.245 124.668 295.245C124.692 295.245 124.716 295.245 124.739 295.245C124.763 295.245 124.786 295.245 124.81 295.245C124.833 295.245 124.857 295.245 124.88 295.245C124.904 295.245 124.927 295.245 124.95 295.245C124.974 295.245 124.997 295.245 125.02 295.245C125.044 295.245 125.067 295.245 125.09 295.245C125.114 295.245 125.137 295.245 125.16 295.245C125.183 295.245 125.207 295.245 125.23 295.245C125.253 295.245 125.276 295.245 125.299 295.245C125.322 295.245 125.345 295.245 125.368 295.245C125.391 295.245 125.414 295.245 125.437 295.245C125.46 295.245 125.483 295.245 125.506 295.245C125.529 295.245 125.552 295.245 125.575 295.245C125.598 295.245 125.621 295.245 125.644 295.245C125.666 295.245 125.689 295.245 125.712 295.245C125.735 295.245 125.757 295.245 125.78 295.245C125.803 295.245 125.826 295.245 125.848 295.245C125.871 295.245 125.893 295.245 125.916 295.245C125.939 295.245 125.961 295.245 125.984 295.245C126.006 295.245 126.029 295.245 126.051 295.245C126.074 295.245 126.096 295.245 126.119 295.245C126.141 295.245 126.163 295.245 126.186 295.245C126.208 295.245 126.23 295.245 126.253 295.245C126.275 295.245 126.297 295.245 126.319 295.245C126.342 295.245 126.364 295.245 126.386 295.245C126.408 295.245 126.43 295.245 126.452 295.245C126.475 295.245 126.497 295.245 126.519 295.245C126.541 295.245 126.563 295.245 126.585 295.245C126.607 295.245 126.629 295.245 126.651 295.245C126.672 295.245 126.694 295.245 126.716 295.245C126.738 295.245 126.76 295.245 126.782 295.245C126.804 295.245 126.825 295.245 126.847 295.245C126.869 295.245 126.89 295.245 126.912 295.245C126.934 295.245 126.955 295.245 126.977 295.245C126.999 295.245 127.02 295.245 127.042 295.245C127.063 295.245 127.085 295.245 127.106 295.245C127.128 295.245 127.149 295.245 127.171 295.245C127.192 295.245 127.214 295.245 127.235 295.245C127.256 295.245 127.278 295.245 127.299 295.245C127.32 295.245 127.341 295.245 127.363 295.245C127.384 295.245 127.405 295.245 127.426 295.245C127.447 295.245 127.469 295.245 127.49 295.245C127.511 295.245 127.532 295.245 127.553 295.245C127.574 295.245 127.595 295.245 127.616 295.245C127.637 295.245 127.658 295.245 127.679 295.245C127.7 295.245 127.72 295.245 127.741 295.245C127.762 295.245 127.783 295.245 127.804 295.245C127.824 295.245 127.845 295.245 127.866 295.245C127.887 295.245 127.907 295.245 127.928 295.245C127.949 295.245 127.969 295.245 127.99 295.245C128.01 295.245 128.031 295.245 128.051 295.245C128.072 295.245 128.092 295.245 128.113 295.245C128.133 295.245 128.154 295.245 128.174 295.245C128.194 295.245 128.215 295.245 128.235 295.245C128.255 295.245 128.276 295.245 128.296 295.245C128.316 295.245 128.336 295.245 128.356 295.245C128.377 295.245 128.397 295.245 128.417 295.245C128.437 295.245 128.457 295.245 128.477 295.245C128.497 295.245 128.517 295.245 128.537 295.245C128.557 295.245 128.577 295.245 128.597 295.245C128.617 295.245 128.637 295.245 128.656 295.245C128.676 295.245 128.696 295.245 128.716 295.245C128.736 295.245 128.755 295.245 128.775 295.245C128.795 295.245 128.814 295.245 128.834 295.245C128.854 295.245 128.873 295.245 128.893 295.245C128.912 295.245 128.932 295.245 128.951 295.245C128.971 295.245 128.99 295.245 129.009 295.245C129.029 295.245 129.048 295.245 129.068 295.245C129.087 295.245 129.106 295.245 129.125 295.245C129.145 295.245 129.164 295.245 129.183 295.245C129.202 295.245 129.221 295.245 129.241 295.245C129.26 295.245 129.279 295.245 129.298 295.245C129.317 295.245 129.336 295.245 129.355 295.245C129.374 295.245 129.393 295.245 129.412 295.245C129.431 295.245 129.449 295.245 129.468 295.245C129.487 295.245 129.506 295.245 129.525 295.245C129.543 295.245 129.562 295.245 129.581 295.245C129.599 295.245 129.618 295.245 129.637 295.245C129.655 295.245 129.674 295.245 129.692 295.245C129.711 295.245 129.729 295.245 129.748 295.245C130.503 295.245 129.869 295.245 130.605 295.245C130.622 295.245 130.639 295.245 130.657 295.245C130.674 295.245 130.691 295.245 130.708 295.245C130.725 295.245 130.742 295.245 130.759 295.245C130.776 295.245 130.793 295.245 130.81 295.245C130.827 295.245 130.844 295.245 130.861 295.245C130.877 295.245 130.894 295.245 130.911 295.245C130.928 295.245 130.945 295.245 130.961 295.245C130.978 295.245 130.995 295.245 131.011 295.245C131.028 295.245 131.044 295.245 131.061 295.245C131.077 295.245 131.094 295.245 131.11 295.245C131.127 295.245 131.143 295.245 131.16 295.245C131.176 295.245 131.192 295.245 131.208 295.245C131.225 295.245 131.241 295.245 131.257 295.245C131.273 295.245 131.29 295.245 131.306 295.245C131.322 295.245 131.338 295.245 131.354 295.245C131.37 295.245 131.386 295.245 131.402 295.245C131.418 295.245 131.434 295.245 131.45 295.245C131.466 295.245 131.481 295.245 131.497 295.245C131.513 295.245 131.529 295.245 131.545 295.245C131.56 295.245 131.576 295.245 131.592 295.245C131.607 295.245 131.623 295.245 131.638 295.245C131.654 295.245 131.669 295.245 131.685 295.245C131.7 295.245 131.716 295.245 131.731 295.245C131.746 295.245 131.762 295.245 131.777 295.245C131.792 295.245 131.808 295.245 131.823 295.245C131.838 295.245 131.853 295.245 131.868 295.245C131.883 295.245 131.899 295.245 131.914 295.245C131.929 295.245 131.944 295.245 131.959 295.245C131.974 295.245 131.988 295.245 132.003 295.245C132.018 295.245 132.033 295.245 132.048 295.245C132.063 295.245 132.077 295.245 132.092 295.245C132.107 295.245 132.121 295.245 132.136 295.245C132.151 295.245 132.165 295.245 132.18 295.245C132.194 295.245 132.209 295.245 132.223 295.245C132.238 295.245 132.252 295.245 132.266 295.245C132.281 295.245 132.295 295.245 132.309 295.245C132.324 295.245 132.338 295.245 132.352 295.245C132.366 295.245 132.38 295.245 132.394 295.245C132.409 295.245 132.423 295.245 132.437 295.245C132.451 295.245 132.465 295.245 132.479 295.245C132.492 295.245 132.506 295.245 132.52 295.245C132.534 295.245 132.548 295.245 132.562 295.245C132.575 295.245 132.589 295.245 132.603 295.245C132.616 295.245 132.63 295.245 132.643 295.245C132.657 295.245 132.671 295.245 132.684 295.245C132.698 295.245 132.711 295.245 132.724 295.245C132.738 295.245 132.751 295.245 132.764 295.245C132.778 295.245 132.791 295.245 132.804 295.245C133.931 295.245 132.899 295.245 133.93 295.245V285.525ZM96.2576 285.525L96.2576 275.805C90.9788 275.805 86.6805 271.592 86.5477 266.341L76.8308 266.586L67.1139 266.832C67.5125 282.59 80.3988 295.245 96.2576 295.245L96.2576 285.525ZM76.8308 266.586L86.5501 266.473L86.5443 265.972L76.825 266.085L67.1056 266.199L67.1115 266.7L76.8308 266.586ZM76.825 266.085H86.545V162.81H76.825H67.105V266.085H76.825ZM76.825 162.81V172.53H127.855V162.81V153.09H76.825V162.81ZM127.855 162.81H118.135V242.385H127.855H137.575V162.81H127.855Z" fill="#006FED" mask="url(#path-3-inside-1_89_14156)"/>
<mask id="path-5-inside-2_89_14156" fill="white">
<path d="M253.779 226.769C256.022 226.407 258.281 226.257 260.537 226.372C285.107 227.619 288.476 256.539 280.585 261.096C276.057 263.71 260.446 272.723 247.959 279.932C238.692 285.283 226.858 282.132 221.464 272.905L221.464 272.906L169.719 183.281L213.934 157.754L253.779 226.769Z"/>
</mask>
<path d="M253.779 226.769C256.022 226.407 258.281 226.257 260.537 226.372C285.107 227.619 288.476 256.539 280.585 261.096C276.057 263.71 260.446 272.723 247.959 279.932C238.692 285.283 226.858 282.132 221.464 272.905L221.464 272.906L169.719 183.281L213.934 157.754L253.779 226.769Z" fill="#7EDAFF"/>
<path d="M253.779 226.769L245.362 231.629L248.713 237.433L255.329 236.365L253.779 226.769ZM260.537 226.372L261.03 216.664L261.03 216.664L260.537 226.372ZM280.585 261.096L285.445 269.514L285.445 269.513L280.585 261.096ZM221.464 272.905L229.856 268L224.977 259.654L216.604 264.488L221.464 272.905ZM221.464 272.906L213.046 277.766L217.906 286.184L226.324 281.324L221.464 272.906ZM169.719 183.281L164.859 174.864L156.441 179.724L161.301 188.141L169.719 183.281ZM213.934 157.754L222.351 152.894L217.491 144.476L209.074 149.336L213.934 157.754ZM253.779 226.769L255.329 236.365C256.973 236.099 258.544 236.003 260.044 236.08L260.537 226.372L261.03 216.664C258.017 216.512 255.07 216.715 252.23 217.173L253.779 226.769ZM260.537 226.372L260.044 236.08C267.739 236.47 271.769 240.841 273.612 245.849C274.587 248.5 274.797 251.031 274.588 252.75C274.312 255.019 273.729 253.831 275.724 252.678L280.585 261.096L285.445 269.513C291.387 266.083 293.342 259.57 293.886 255.096C294.496 250.073 293.808 244.441 291.856 239.136C287.844 228.234 277.905 217.521 261.03 216.664L260.537 226.372ZM280.585 261.096L275.725 252.678C273.779 253.802 268.109 257.075 262.397 260.373C262.373 260.387 262.349 260.4 262.326 260.414C262.302 260.428 262.279 260.441 262.255 260.455C262.231 260.469 262.208 260.482 262.184 260.496C262.161 260.51 262.137 260.523 262.113 260.537C262.09 260.551 262.066 260.564 262.042 260.578C262.018 260.592 261.995 260.605 261.971 260.619C261.947 260.633 261.924 260.646 261.9 260.66C261.876 260.674 261.852 260.688 261.828 260.701C261.805 260.715 261.781 260.729 261.757 260.742C261.733 260.756 261.709 260.77 261.686 260.784C261.662 260.798 261.638 260.811 261.614 260.825C261.59 260.839 261.566 260.853 261.542 260.866C261.518 260.88 261.494 260.894 261.471 260.908C261.447 260.922 261.423 260.936 261.399 260.949C261.375 260.963 261.351 260.977 261.327 260.991C261.303 261.005 261.279 261.019 261.255 261.032C261.231 261.046 261.207 261.06 261.183 261.074C261.159 261.088 261.135 261.102 261.111 261.116C261.087 261.13 261.062 261.144 261.038 261.157C261.014 261.171 260.99 261.185 260.966 261.199C260.942 261.213 260.918 261.227 260.894 261.241C260.869 261.255 260.845 261.269 260.821 261.283C260.797 261.297 260.773 261.311 260.749 261.325C260.724 261.339 260.7 261.353 260.676 261.367C260.652 261.381 260.628 261.395 260.603 261.409C260.579 261.423 260.555 261.437 260.531 261.451C260.506 261.465 260.482 261.479 260.458 261.493C260.433 261.507 260.409 261.521 260.385 261.535C260.36 261.549 260.336 261.563 260.312 261.577C260.287 261.591 260.263 261.605 260.239 261.619C260.214 261.633 260.19 261.647 260.166 261.661C260.141 261.675 260.117 261.69 260.092 261.704C260.068 261.718 260.043 261.732 260.019 261.746C259.995 261.76 259.97 261.774 259.946 261.788C259.921 261.802 259.897 261.817 259.872 261.831C259.848 261.845 259.823 261.859 259.799 261.873C259.774 261.887 259.75 261.901 259.725 261.916C259.701 261.93 259.676 261.944 259.652 261.958C259.627 261.972 259.602 261.986 259.578 262.001C259.553 262.015 259.529 262.029 259.504 262.043C259.48 262.057 259.455 262.072 259.43 262.086C259.406 262.1 259.381 262.114 259.356 262.129C259.332 262.143 259.307 262.157 259.282 262.171C259.258 262.185 259.233 262.2 259.208 262.214C259.184 262.228 259.159 262.242 259.134 262.257C259.11 262.271 259.085 262.285 259.06 262.3C259.035 262.314 259.011 262.328 258.986 262.342C258.961 262.357 258.936 262.371 258.912 262.385C258.887 262.4 258.862 262.414 258.837 262.428C258.813 262.442 258.788 262.457 258.763 262.471C258.738 262.485 258.713 262.5 258.689 262.514C258.664 262.528 258.639 262.543 258.614 262.557C258.589 262.571 258.564 262.586 258.539 262.6C258.515 262.615 258.49 262.629 258.465 262.643C258.44 262.658 258.415 262.672 258.39 262.686C258.365 262.701 258.34 262.715 258.315 262.73C258.29 262.744 258.266 262.758 258.241 262.773C258.216 262.787 258.191 262.801 258.166 262.816C258.141 262.83 258.116 262.845 258.091 262.859C258.066 262.874 258.041 262.888 258.016 262.902C257.991 262.917 257.966 262.931 257.941 262.946C257.916 262.96 257.891 262.975 257.866 262.989C257.841 263.004 257.816 263.018 257.791 263.032C257.766 263.047 257.741 263.061 257.716 263.076C257.691 263.09 257.665 263.105 257.64 263.119C257.615 263.134 257.59 263.148 257.565 263.163C257.54 263.177 257.515 263.192 257.49 263.206C257.465 263.221 257.44 263.235 257.414 263.25C257.389 263.264 257.364 263.279 257.339 263.293C257.314 263.308 257.289 263.322 257.264 263.337C257.238 263.351 257.213 263.366 257.188 263.38C257.163 263.395 257.138 263.409 257.113 263.424C257.087 263.439 257.062 263.453 257.037 263.468C257.012 263.482 256.986 263.497 256.961 263.511C256.936 263.526 256.911 263.54 256.886 263.555C256.86 263.57 256.835 263.584 256.81 263.599C256.785 263.613 256.759 263.628 256.734 263.642C256.709 263.657 256.684 263.672 256.658 263.686C256.633 263.701 256.608 263.715 256.582 263.73C256.557 263.745 256.532 263.759 256.507 263.774C256.481 263.788 256.456 263.803 256.431 263.818C256.405 263.832 256.38 263.847 256.355 263.862C256.329 263.876 256.304 263.891 256.279 263.905C256.253 263.92 256.228 263.935 256.203 263.949C256.177 263.964 256.152 263.979 256.126 263.993C256.101 264.008 256.076 264.023 256.05 264.037C256.025 264.052 256 264.067 255.974 264.081C255.949 264.096 255.923 264.111 255.898 264.125C255.873 264.14 255.847 264.155 255.822 264.169C255.796 264.184 255.771 264.199 255.745 264.213C255.72 264.228 255.695 264.243 255.669 264.257C255.644 264.272 255.618 264.287 255.593 264.301C255.567 264.316 255.542 264.331 255.516 264.345C255.491 264.36 255.466 264.375 255.44 264.39C255.415 264.404 255.389 264.419 255.364 264.434C255.338 264.448 255.313 264.463 255.287 264.478C255.262 264.493 255.236 264.507 255.211 264.522C255.185 264.537 255.16 264.551 255.134 264.566C255.109 264.581 255.083 264.596 255.058 264.61C255.032 264.625 255.007 264.64 254.981 264.655C254.956 264.669 254.93 264.684 254.904 264.699C254.879 264.714 254.853 264.728 254.828 264.743C254.802 264.758 254.777 264.773 254.751 264.787C254.726 264.802 254.7 264.817 254.674 264.832C254.649 264.846 254.623 264.861 254.598 264.876C254.572 264.891 254.547 264.905 254.521 264.92C254.495 264.935 254.47 264.95 254.444 264.965C254.419 264.979 254.393 264.994 254.367 265.009C254.342 265.024 254.316 265.038 254.291 265.053C254.265 265.068 254.239 265.083 254.214 265.098C254.188 265.112 254.163 265.127 254.137 265.142C254.111 265.157 254.086 265.171 254.06 265.186C254.035 265.201 254.009 265.216 253.983 265.231C253.958 265.245 253.932 265.26 253.906 265.275C253.881 265.29 253.855 265.305 253.829 265.319C253.804 265.334 253.778 265.349 253.752 265.364C253.727 265.379 253.701 265.394 253.676 265.408C253.65 265.423 253.624 265.438 253.599 265.453C253.573 265.468 253.547 265.482 253.522 265.497C253.496 265.512 253.47 265.527 253.445 265.542C253.419 265.557 253.393 265.571 253.368 265.586C253.342 265.601 253.316 265.616 253.29 265.631C253.265 265.645 253.239 265.66 253.213 265.675C253.188 265.69 253.162 265.705 253.136 265.72C253.111 265.734 253.085 265.749 253.059 265.764C253.034 265.779 253.008 265.794 252.982 265.809C252.957 265.823 252.931 265.838 252.905 265.853C252.879 265.868 252.854 265.883 252.828 265.898C252.802 265.913 252.777 265.927 252.751 265.942C252.725 265.957 252.699 265.972 252.674 265.987C252.648 266.002 252.622 266.016 252.597 266.031C252.571 266.046 252.545 266.061 252.519 266.076C252.494 266.091 252.468 266.105 252.442 266.12C252.417 266.135 252.391 266.15 252.365 266.165C252.339 266.18 252.314 266.195 252.288 266.209C252.262 266.224 252.237 266.239 252.211 266.254C252.185 266.269 252.159 266.284 252.134 266.299C252.108 266.313 252.082 266.328 252.056 266.343C252.031 266.358 252.005 266.373 251.979 266.388C251.954 266.403 251.928 266.417 251.902 266.432C251.876 266.447 251.851 266.462 251.825 266.477C251.799 266.492 251.773 266.507 251.748 266.521C251.722 266.536 251.696 266.551 251.671 266.566C251.645 266.581 251.619 266.596 251.593 266.61C251.568 266.625 251.542 266.64 251.516 266.655C251.49 266.67 251.465 266.685 251.439 266.7C251.413 266.714 251.388 266.729 251.362 266.744C251.336 266.759 251.31 266.774 251.285 266.789C251.259 266.804 251.233 266.818 251.207 266.833C251.182 266.848 251.156 266.863 251.13 266.878C251.105 266.893 251.079 266.908 251.053 266.922C251.027 266.937 251.002 266.952 250.976 266.967C250.95 266.982 250.924 266.997 250.899 267.012C250.873 267.026 250.847 267.041 250.822 267.056C250.796 267.071 250.77 267.086 250.744 267.101C250.719 267.115 250.693 267.13 250.667 267.145C250.642 267.16 250.616 267.175 250.59 267.19C250.564 267.205 250.539 267.219 250.513 267.234C250.487 267.249 250.462 267.264 250.436 267.279C250.41 267.294 250.385 267.308 250.359 267.323C250.333 267.338 250.307 267.353 250.282 267.368C250.256 267.383 250.23 267.397 250.205 267.412C250.179 267.427 250.153 267.442 250.128 267.457C250.102 267.472 250.076 267.486 250.05 267.501C250.025 267.516 249.999 267.531 249.973 267.546C249.948 267.561 249.922 267.575 249.896 267.59C249.871 267.605 249.845 267.62 249.819 267.635C249.794 267.65 249.768 267.664 249.742 267.679C249.469 267.837 249.708 267.699 249.435 267.857C249.409 267.872 249.383 267.887 249.358 267.901C249.332 267.916 249.306 267.931 249.281 267.946C249.255 267.961 249.229 267.975 249.204 267.99C249.178 268.005 249.153 268.02 249.127 268.034C249.101 268.049 249.076 268.064 249.05 268.079C249.024 268.094 248.999 268.108 248.973 268.123C248.948 268.138 248.922 268.153 248.896 268.168C248.871 268.182 248.845 268.197 248.82 268.212C248.794 268.227 248.769 268.241 248.743 268.256C248.717 268.271 248.692 268.286 248.666 268.3C248.641 268.315 248.615 268.33 248.59 268.345C248.564 268.36 248.538 268.374 248.513 268.389C248.487 268.404 248.462 268.419 248.436 268.433C248.411 268.448 248.385 268.463 248.36 268.478C248.334 268.492 248.308 268.507 248.283 268.522C248.257 268.536 248.232 268.551 248.206 268.566C248.181 268.581 248.155 268.595 248.13 268.61C248.104 268.625 248.079 268.64 248.053 268.654C248.028 268.669 248.002 268.684 247.977 268.698C247.951 268.713 247.926 268.728 247.9 268.743C247.875 268.757 247.849 268.772 247.824 268.787C247.799 268.801 247.773 268.816 247.748 268.831C247.722 268.846 247.697 268.86 247.671 268.875C247.646 268.89 247.62 268.904 247.595 268.919C247.569 268.934 247.544 268.948 247.519 268.963C247.493 268.978 247.468 268.992 247.442 269.007C247.417 269.022 247.392 269.036 247.366 269.051C247.341 269.066 247.315 269.08 247.29 269.095C247.265 269.11 247.239 269.124 247.214 269.139C247.188 269.154 247.163 269.168 247.138 269.183C247.112 269.198 247.087 269.212 247.062 269.227C247.036 269.242 247.011 269.256 246.986 269.271C246.96 269.285 246.935 269.3 246.91 269.315C246.884 269.329 246.859 269.344 246.834 269.359C246.808 269.373 246.783 269.388 246.758 269.402C246.732 269.417 246.707 269.432 246.682 269.446C246.656 269.461 246.631 269.475 246.606 269.49C246.581 269.505 246.555 269.519 246.53 269.534C246.505 269.548 246.48 269.563 246.454 269.577C246.429 269.592 246.404 269.607 246.379 269.621C246.353 269.636 246.328 269.65 246.303 269.665C246.278 269.679 246.253 269.694 246.227 269.709C246.202 269.723 246.177 269.738 246.152 269.752C246.127 269.767 246.101 269.781 246.076 269.796C246.051 269.81 246.026 269.825 246.001 269.839C245.976 269.854 245.95 269.868 245.925 269.883C245.9 269.897 245.875 269.912 245.85 269.926C245.825 269.941 245.8 269.956 245.775 269.97C245.749 269.984 245.724 269.999 245.699 270.013C245.674 270.028 245.649 270.042 245.624 270.057C245.599 270.071 245.574 270.086 245.549 270.1C245.524 270.115 245.499 270.129 245.474 270.144C245.449 270.158 245.424 270.173 245.399 270.187C245.373 270.202 245.348 270.216 245.323 270.23C245.298 270.245 245.273 270.259 245.248 270.274C245.223 270.288 245.199 270.303 245.174 270.317C245.149 270.331 245.124 270.346 245.099 270.36C245.074 270.375 245.049 270.389 245.024 270.403C244.999 270.418 244.974 270.432 244.949 270.447C244.924 270.461 244.899 270.475 244.874 270.49C244.849 270.504 244.825 270.518 244.8 270.533C244.775 270.547 244.75 270.562 244.725 270.576C244.7 270.59 244.675 270.605 244.65 270.619C244.626 270.633 244.601 270.648 244.576 270.662C244.551 270.676 244.526 270.691 244.502 270.705C244.477 270.719 244.452 270.734 244.427 270.748C244.402 270.762 244.378 270.777 244.353 270.791C244.328 270.805 244.303 270.819 244.279 270.834C244.254 270.848 244.229 270.862 244.204 270.877C244.18 270.891 244.155 270.905 244.13 270.919C244.106 270.934 244.081 270.948 244.056 270.962C244.032 270.976 244.007 270.991 243.982 271.005C243.958 271.019 243.933 271.033 243.908 271.047C243.884 271.062 243.859 271.076 243.834 271.09C243.81 271.104 243.785 271.119 243.761 271.133C243.736 271.147 243.711 271.161 243.687 271.175C243.662 271.19 243.638 271.204 243.613 271.218C243.589 271.232 243.564 271.246 243.54 271.26C243.515 271.275 243.49 271.289 243.466 271.303C243.441 271.317 243.417 271.331 243.392 271.345C243.368 271.359 243.344 271.374 243.319 271.388C243.295 271.402 243.27 271.416 243.246 271.43C243.221 271.444 243.197 271.458 243.172 271.472C243.148 271.486 243.124 271.5 243.099 271.515L247.959 279.932L252.819 288.35C252.844 288.336 252.868 288.322 252.892 288.308C252.917 288.294 252.941 288.28 252.966 288.266C252.99 288.251 253.015 288.237 253.039 288.223C253.064 288.209 253.088 288.195 253.112 288.181C253.137 288.167 253.161 288.153 253.186 288.138C253.21 288.124 253.235 288.11 253.26 288.096C253.284 288.082 253.309 288.068 253.333 288.053C253.358 288.039 253.382 288.025 253.407 288.011C253.431 287.997 253.456 287.982 253.481 287.968C253.505 287.954 253.53 287.94 253.554 287.926C253.579 287.911 253.604 287.897 253.628 287.883C253.653 287.869 253.678 287.855 253.702 287.84C253.727 287.826 253.752 287.812 253.776 287.798C253.801 287.783 253.826 287.769 253.85 287.755C253.875 287.741 253.9 287.726 253.924 287.712C253.949 287.698 253.974 287.683 253.999 287.669C254.023 287.655 254.048 287.641 254.073 287.626C254.098 287.612 254.122 287.598 254.147 287.583C254.172 287.569 254.197 287.555 254.222 287.54C254.246 287.526 254.271 287.512 254.296 287.498C254.321 287.483 254.346 287.469 254.37 287.455C254.395 287.44 254.42 287.426 254.445 287.411C254.47 287.397 254.495 287.383 254.52 287.368C254.545 287.354 254.569 287.34 254.594 287.325C254.619 287.311 254.644 287.297 254.669 287.282C254.694 287.268 254.719 287.253 254.744 287.239C254.769 287.225 254.794 287.21 254.819 287.196C254.844 287.181 254.869 287.167 254.894 287.153C254.919 287.138 254.943 287.124 254.968 287.109C254.993 287.095 255.018 287.08 255.043 287.066C255.068 287.052 255.093 287.037 255.119 287.023C255.144 287.008 255.169 286.994 255.194 286.979C255.219 286.965 255.244 286.95 255.269 286.936C255.294 286.921 255.319 286.907 255.344 286.892C255.369 286.878 255.394 286.863 255.419 286.849C255.444 286.835 255.469 286.82 255.495 286.806C255.52 286.791 255.545 286.777 255.57 286.762C255.595 286.748 255.62 286.733 255.645 286.718C255.67 286.704 255.696 286.689 255.721 286.675C255.746 286.66 255.771 286.646 255.796 286.631C255.821 286.617 255.847 286.602 255.872 286.588C255.897 286.573 255.922 286.559 255.947 286.544C255.973 286.53 255.998 286.515 256.023 286.5C256.048 286.486 256.073 286.471 256.099 286.457C256.124 286.442 256.149 286.428 256.174 286.413C256.2 286.398 256.225 286.384 256.25 286.369C256.275 286.355 256.301 286.34 256.326 286.326C256.351 286.311 256.376 286.296 256.402 286.282C256.427 286.267 256.452 286.253 256.478 286.238C256.503 286.223 256.528 286.209 256.554 286.194C256.579 286.179 256.604 286.165 256.63 286.15C256.655 286.136 256.68 286.121 256.706 286.106C256.731 286.092 256.756 286.077 256.782 286.062C256.807 286.048 256.832 286.033 256.858 286.019C256.883 286.004 256.908 285.989 256.934 285.975C256.959 285.96 256.985 285.945 257.01 285.931C257.035 285.916 257.061 285.901 257.086 285.887C257.112 285.872 257.137 285.857 257.162 285.843C257.188 285.828 257.213 285.813 257.239 285.799C257.264 285.784 257.289 285.769 257.315 285.755C257.34 285.74 257.366 285.725 257.391 285.71C257.417 285.696 257.442 285.681 257.468 285.666C257.493 285.652 257.519 285.637 257.544 285.622C257.569 285.608 257.595 285.593 257.62 285.578C257.646 285.563 257.671 285.549 257.697 285.534C257.722 285.519 257.748 285.505 257.773 285.49C257.799 285.475 257.824 285.46 257.85 285.446C257.875 285.431 257.901 285.416 257.926 285.401C257.952 285.387 257.977 285.372 258.003 285.357C258.028 285.343 258.054 285.328 258.08 285.313C258.105 285.298 258.131 285.284 258.156 285.269C258.182 285.254 258.207 285.239 258.233 285.225C258.258 285.21 258.284 285.195 258.31 285.18C258.335 285.166 258.361 285.151 258.386 285.136C258.412 285.121 258.437 285.106 258.463 285.092C258.489 285.077 258.514 285.062 258.54 285.047C258.565 285.033 258.591 285.018 258.616 285.003C258.642 284.988 258.668 284.974 258.693 284.959C258.719 284.944 258.744 284.929 258.77 284.914C258.796 284.9 258.821 284.885 258.847 284.87C259.394 284.554 258.915 284.831 259.462 284.515C259.488 284.5 259.514 284.485 259.539 284.47C259.565 284.455 259.591 284.441 259.616 284.426C259.642 284.411 259.668 284.396 259.693 284.381C259.719 284.366 259.745 284.352 259.77 284.337C259.796 284.322 259.822 284.307 259.848 284.292C259.873 284.277 259.899 284.263 259.925 284.248C259.95 284.233 259.976 284.218 260.002 284.203C260.027 284.188 260.053 284.174 260.079 284.159C260.105 284.144 260.13 284.129 260.156 284.114C260.182 284.099 260.207 284.085 260.233 284.07C260.259 284.055 260.284 284.04 260.31 284.025C260.336 284.01 260.362 283.996 260.387 283.981C260.413 283.966 260.439 283.951 260.464 283.936C260.49 283.921 260.516 283.906 260.542 283.892C260.567 283.877 260.593 283.862 260.619 283.847C260.644 283.832 260.67 283.817 260.696 283.803C260.722 283.788 260.747 283.773 260.773 283.758C260.799 283.743 260.825 283.728 260.85 283.713C260.876 283.699 260.902 283.684 260.927 283.669C260.953 283.654 260.979 283.639 261.005 283.624C261.03 283.609 261.056 283.595 261.082 283.58C261.108 283.565 261.133 283.55 261.159 283.535C261.185 283.52 261.21 283.505 261.236 283.491C261.262 283.476 261.288 283.461 261.313 283.446C261.339 283.431 261.365 283.416 261.391 283.401C261.416 283.387 261.442 283.372 261.468 283.357C261.493 283.342 261.519 283.327 261.545 283.312C261.571 283.297 261.596 283.283 261.622 283.268C261.648 283.253 261.674 283.238 261.699 283.223C261.725 283.208 261.751 283.193 261.776 283.179C261.802 283.164 261.828 283.149 261.854 283.134C261.879 283.119 261.905 283.104 261.931 283.09C261.957 283.075 261.982 283.06 262.008 283.045C262.034 283.03 262.059 283.015 262.085 283C262.111 282.986 262.137 282.971 262.162 282.956C262.188 282.941 262.214 282.926 262.239 282.911C262.265 282.896 262.291 282.882 262.317 282.867C262.342 282.852 262.368 282.837 262.394 282.822C262.419 282.807 262.445 282.793 262.471 282.778C262.497 282.763 262.522 282.748 262.548 282.733C262.574 282.718 262.599 282.704 262.625 282.689C262.651 282.674 262.677 282.659 262.702 282.644C262.728 282.629 262.754 282.614 262.779 282.6C262.805 282.585 262.831 282.57 262.856 282.555C262.882 282.54 262.908 282.525 262.933 282.511C262.959 282.496 262.985 282.481 263.01 282.466C263.036 282.451 263.062 282.437 263.088 282.422C263.113 282.407 263.139 282.392 263.165 282.377C263.19 282.362 263.216 282.348 263.242 282.333C263.267 282.318 263.293 282.303 263.319 282.288C263.344 282.274 263.37 282.259 263.396 282.244C263.421 282.229 263.447 282.214 263.472 282.199C263.498 282.185 263.524 282.17 263.549 282.155C263.575 282.14 263.601 282.125 263.626 282.111C263.652 282.096 263.678 282.081 263.703 282.066C263.729 282.051 263.755 282.037 263.78 282.022C263.806 282.007 263.831 281.992 263.857 281.977C263.883 281.963 263.908 281.948 263.934 281.933C263.959 281.918 263.985 281.904 264.011 281.889C264.036 281.874 264.062 281.859 264.087 281.844C264.113 281.83 264.139 281.815 264.164 281.8C264.19 281.785 264.215 281.77 264.241 281.756C264.267 281.741 264.292 281.726 264.318 281.711C264.343 281.697 264.369 281.682 264.394 281.667C264.42 281.652 264.446 281.638 264.471 281.623C264.497 281.608 264.522 281.593 264.548 281.579C264.573 281.564 264.599 281.549 264.624 281.534C264.65 281.52 264.676 281.505 264.701 281.49C264.727 281.475 264.752 281.461 264.778 281.446C264.803 281.431 264.829 281.416 264.854 281.402C264.88 281.387 264.905 281.372 264.931 281.358C264.956 281.343 264.982 281.328 265.007 281.313C265.033 281.299 265.058 281.284 265.084 281.269C265.109 281.255 265.135 281.24 265.16 281.225C265.186 281.21 265.211 281.196 265.236 281.181C265.262 281.166 265.287 281.152 265.313 281.137C265.338 281.122 265.364 281.108 265.389 281.093C265.415 281.078 265.44 281.063 265.465 281.049C265.491 281.034 265.516 281.019 265.542 281.005C265.567 280.99 265.593 280.975 265.618 280.961C265.643 280.946 265.669 280.931 265.694 280.917C265.72 280.902 265.745 280.887 265.77 280.873C265.796 280.858 265.821 280.843 265.846 280.829C265.872 280.814 265.897 280.8 265.923 280.785C265.948 280.77 265.973 280.756 265.999 280.741C266.024 280.726 266.049 280.712 266.075 280.697C266.1 280.682 266.125 280.668 266.151 280.653C266.176 280.639 266.201 280.624 266.227 280.609C266.252 280.595 266.277 280.58 266.302 280.566C266.328 280.551 266.353 280.536 266.378 280.522C266.404 280.507 266.429 280.493 266.454 280.478C266.479 280.463 266.505 280.449 266.53 280.434C266.555 280.42 266.58 280.405 266.606 280.391C266.631 280.376 266.656 280.361 266.681 280.347C266.706 280.332 266.732 280.318 266.757 280.303C266.782 280.289 266.807 280.274 266.833 280.26C266.858 280.245 266.883 280.23 266.908 280.216C266.933 280.201 266.958 280.187 266.984 280.172C267.009 280.158 267.034 280.143 267.059 280.129C267.084 280.114 267.109 280.1 267.134 280.085C267.16 280.071 267.185 280.056 267.21 280.042C267.235 280.027 267.26 280.013 267.285 279.998C267.31 279.984 267.335 279.969 267.36 279.955C267.385 279.94 267.411 279.926 267.436 279.911C267.461 279.897 267.486 279.882 267.511 279.868C267.536 279.854 267.561 279.839 267.586 279.825C267.611 279.81 267.636 279.796 267.661 279.781C267.686 279.767 267.711 279.752 267.736 279.738C267.761 279.724 267.786 279.709 267.811 279.695C267.836 279.68 267.861 279.666 267.886 279.651C267.911 279.637 267.936 279.623 267.961 279.608C267.986 279.594 268.01 279.579 268.035 279.565C268.06 279.551 268.085 279.536 268.11 279.522C268.135 279.508 268.16 279.493 268.185 279.479C268.21 279.464 268.235 279.45 268.259 279.436C268.284 279.421 268.309 279.407 268.334 279.393C268.359 279.378 268.384 279.364 268.409 279.35C268.433 279.335 268.458 279.321 268.483 279.307C268.508 279.292 268.533 279.278 268.557 279.264C268.582 279.249 268.607 279.235 268.632 279.221C268.656 279.206 268.681 279.192 268.706 279.178C268.731 279.164 268.755 279.149 268.78 279.135C268.805 279.121 268.83 279.107 268.854 279.092C268.879 279.078 268.904 279.064 268.928 279.049C268.953 279.035 268.978 279.021 269.002 279.007C269.027 278.993 269.052 278.978 269.076 278.964C269.101 278.95 269.126 278.936 269.15 278.921C269.175 278.907 269.2 278.893 269.224 278.879C269.249 278.865 269.273 278.85 269.298 278.836C269.322 278.822 269.347 278.808 269.372 278.794C269.396 278.779 269.421 278.765 269.445 278.751C269.47 278.737 269.494 278.723 269.519 278.709C269.543 278.694 269.568 278.68 269.592 278.666C269.617 278.652 269.641 278.638 269.666 278.624C269.69 278.61 269.715 278.596 269.739 278.581C269.763 278.567 269.788 278.553 269.812 278.539C269.837 278.525 269.861 278.511 269.886 278.497C269.91 278.483 269.934 278.469 269.959 278.455C269.983 278.441 270.007 278.427 270.032 278.412C270.056 278.398 270.08 278.384 270.105 278.37C270.129 278.356 270.153 278.342 270.178 278.328C270.202 278.314 270.226 278.3 270.251 278.286C270.275 278.272 270.299 278.258 270.323 278.244C270.348 278.23 270.372 278.216 270.396 278.202C270.42 278.188 270.444 278.174 270.469 278.16C270.493 278.146 270.517 278.132 270.541 278.118C270.565 278.104 270.589 278.09 270.614 278.077C270.638 278.063 270.662 278.049 270.686 278.035C270.71 278.021 270.734 278.007 270.758 277.993C270.782 277.979 270.807 277.965 270.831 277.951C270.855 277.937 270.879 277.923 270.903 277.91C270.927 277.896 270.951 277.882 270.975 277.868C270.999 277.854 271.023 277.84 271.047 277.826C271.071 277.813 271.095 277.799 271.119 277.785C271.143 277.771 271.167 277.757 271.191 277.743C271.214 277.73 271.238 277.716 271.262 277.702C271.286 277.688 271.31 277.674 271.334 277.661C271.358 277.647 271.382 277.633 271.406 277.619C271.429 277.606 271.453 277.592 271.477 277.578C271.501 277.564 271.525 277.551 271.548 277.537C271.572 277.523 271.596 277.509 271.62 277.496C271.644 277.482 271.667 277.468 271.691 277.454C271.715 277.441 271.738 277.427 271.762 277.413C271.786 277.4 271.81 277.386 271.833 277.372C271.857 277.359 271.881 277.345 271.904 277.331C271.928 277.318 271.951 277.304 271.975 277.29C271.999 277.277 272.022 277.263 272.046 277.25C272.069 277.236 272.093 277.222 272.117 277.209C277.829 273.911 283.499 270.637 285.445 269.514L280.585 261.096ZM247.959 279.932L243.099 271.515C238.471 274.187 232.555 272.617 229.856 268L221.464 272.905L213.073 277.811C221.161 291.646 238.914 296.378 252.819 288.35L247.959 279.932ZM221.464 272.905L216.604 264.488L216.604 264.488L221.464 272.906L226.324 281.324L226.324 281.323L221.464 272.905ZM221.464 272.906L229.881 268.046L178.137 178.421L169.719 183.281L161.301 188.141L213.046 277.766L221.464 272.906ZM169.719 183.281L174.579 191.699L218.794 166.172L213.934 157.754L209.074 149.336L164.859 174.864L169.719 183.281ZM213.934 157.754L205.516 162.614L245.362 231.629L253.779 226.769L262.197 221.909L222.351 152.894L213.934 157.754Z" fill="#006FED" mask="url(#path-5-inside-2_89_14156)"/>
<mask id="mask0_89_14156" style="mask-type:alpha" maskUnits="userSpaceOnUse" x="58" y="0" width="228" height="228">
<circle cx="172.203" cy="113.603" r="108.743" fill="#89D3E3" stroke="#6E6E6E" stroke-width="9.72"/>
</mask>
<g mask="url(#mask0_89_14156)">
<circle cx="172.203" cy="113.603" r="108.743" fill="#7EDAFF" stroke="#006FED" stroke-width="9.72"/>
<path fill-rule="evenodd" clip-rule="evenodd" d="M85.6287 107.366C75.7736 103.137 72.3172 90.1854 71.0803 76.5998C69.7136 61.5898 67.9169 43.8026 78.4431 28.4464C88.7529 13.406 104.305 13.0998 117.906 8.28804C128.898 4.39951 139.759 0.301004 148.566 3.63895C158.628 7.45276 170.287 13.007 169.164 27.7165C168.064 42.1256 145.202 50.7396 135.642 64.1429C127.905 74.9906 129.34 90.6875 119.483 97.3736C107.788 105.306 94.8902 111.341 85.6287 107.366Z" fill="#C4F78D"/>
<path fill-rule="evenodd" clip-rule="evenodd" d="M254.455 34.4049C260.083 27.6153 268.804 26.2411 277.271 23.6035C288.59 20.077 300.191 10.886 310.462 16.9566C321.702 23.6003 326.376 38.6191 324.217 51.352C322.278 62.7903 310.876 68.9899 300.688 74.5965C292.405 79.1548 283.405 80.3595 273.98 78.9988C262.036 77.2744 246.844 77.1452 242.019 66.1262C237.191 55.0997 246.827 43.6067 254.455 34.4049Z" fill="#C4F78D"/>
<path fill-rule="evenodd" clip-rule="evenodd" d="M93.8518 136.406C103.152 136.928 110.05 144.152 117.817 150.25C128.202 158.404 143.426 162.849 145.233 176.75C147.211 191.964 137.966 206.887 126.078 213.791C115.399 219.994 102.764 213.637 91.4191 208.005C82.1957 203.426 75.2528 195.822 70.1361 186.018C63.6517 173.595 53.7083 159.241 59.5684 146.982C65.4324 134.715 81.247 135.699 93.8518 136.406Z" fill="#C4F78D"/>
<path fill-rule="evenodd" clip-rule="evenodd" d="M198.727 202.475C188.217 195.18 182.552 181.178 185.09 168.701C187.275 157.958 201.366 156.554 209.548 149.272C218.576 141.238 221.974 124.636 234.095 125.09C246.728 125.563 254.575 139.326 259.122 151.127C263.1 161.45 261.084 172.577 256.2 182.454C251.524 191.912 243.715 198.99 233.736 202.466C222.164 206.497 208.835 209.491 198.727 202.475Z" fill="#C4F78D"/>
<circle cx="172.203" cy="113.603" r="108.743" stroke="#006FED" stroke-width="9.72"/>
</g>
<path d="M82.2925 240.57C167.343 218.7 168.558 134.865 61.03 134.865" stroke="#006FED" stroke-width="9.72"/>
<path d="M179.975 111.78C194.203 119.622 207.812 120.134 222.968 111.78" stroke="#006FED" stroke-width="9.72" stroke-linecap="round"/>
<rect x="172.81" y="76.545" width="14.3308" height="15.795" rx="7.16538" fill="#006FED"/>
<rect x="214.369" y="76.545" width="14.3308" height="15.795" rx="7.16538" fill="#006FED"/>
</svg>
